#!OML:ASF X:\für Bonn\!DataBase\2005_08_12_Daniel\c3d\Daniel.ASF
:FULLY-SPECIFIED
:DEGREES
50
root -3.57024 17.3116 -1.07856 357.938 -72.651 -385.741
lowerback 47.8537 -17.4586 -10.1091
upperback 14.8137 -28.5691 -2.53548
thorax -0.47286 -15.785 11.7853
lowerneck 6.42397 14.2358 -2.57766
upperneck 11.195 18.3198 -2.62653
head 2.5714 8.64834 -0.378139
rclavicle -1.02573e-013 9.70069e-014
rhumerus -59.4941 6.60045 -73.4469
rradius 63.5042
rwrist 4.28665
rhand -29.6628 42.4291
rfingers 7.12502
rthumb -2.99182 12.4703
lclavicle -1.02573e-013 9.70069e-014
lhumerus 45.0919 3.02714 78.0468
lradius 136.631
lwrist 44.9302
lhand -2.90521 -15.9667
lfingers 7.12502
lthumb 22.8049 12.7052
rfemur -75.5294 -16.2362 21.4807
rtibia 121.191
rfoot -0.143623 12.2775
rtoes -15.5688
lfemur 12.6404 -12.9801 -21.7024
ltibia 29.3127
lfoot -16.1415 0.33322
ltoes 5.98078
51
root -3.56598 17.3259 -1.06458 357.911 -72.6741 -386.285
lowerback 48.7899 -17.3725 -10.3103
upperback 15.0157 -28.6893 -2.63623
thorax -0.410761 -15.9007 11.8949
lowerneck 6.26096 14.212 -2.36958
upperneck 11.1621 18.3079 -2.51919
head 2.59492 8.65644 -0.363024
rclavicle -7.15625e-014 -5.725e-014
rhumerus -59.9992 6.29931 -73.3886
rradius 62.07
rwrist 4.35167
rhand -30.0266 42.5649
rfingers 7.12502
rthumb -3.34318 12.6113
lclavicle -7.15625e-014 -5.725e-014
lhumerus 44.8926 2.89057 78.3233
lradius 136.542
lwrist 45.0004
lhand -2.38942 -16.1982
lfingers 7.12502
lthumb 23.2998 12.4119
rfemur -77.9066 -16.6024 22.4079
rtibia 122.411
rfoot 0.0704134 12.6114
rtoes -15.9112
lfemur 13.4923 -12.6658 -21.5678
ltibia 28.817
lfoot -15.8533 0.151958
ltoes 5.87384
52
root -3.56513 17.3352 -1.05102 357.855 -72.7241 -386.805
lowerback 49.7075 -17.2415 -10.5292
upperback 15.194 -28.7672 -2.70084
thorax -0.348307 -15.9987 12.0291
lowerneck 6.13435 14.1665 -2.11411
upperneck 11.1024 18.2727 -2.51363
head 2.61891 8.65366 -0.387678
rclavicle 6.99722e-014 -1.90833e-014
rhumerus -60.3958 6.08886 -73.2864
rradius 60.6046
rwrist 4.28132
rhand -30.3534 42.7273
rfingers 7.12502
rthumb -3.65875 12.779
lclavicle 6.99722e-014 -1.90833e-014
lhumerus 44.6329 2.75185 78.6424
lradius 136.433
lwrist 45.0551
lhand -1.91386 -16.3455
lfingers 7.12502
lthumb 23.756 12.2061
rfemur -80.2232 -16.9854 23.3284
rtibia 123.572
rfoot 0.242096 12.9071
rtoes -15.8539
lfemur 14.4177 -12.3702 -21.4454
ltibia 28.2304
lfoot -15.5627 -0.00877048
ltoes 5.86033
53
root -3.56679 17.3438 -1.03686 357.717 -72.7987 -387.199
lowerback 51.5628 -17.0343 -10.7733
upperback 14.184 -28.9235 -1.99798
thorax -0.417034 -16.0826 12.0712
lowerneck 6.02258 14.1274 -1.90418
upperneck 11.1417 18.2357 -2.46959
head 2.66567 8.64308 -0.392364
rclavicle 4.29375e-014 1.06549e-013
rhumerus -60.8139 5.99257 -73.1453
rradius 59.269
rwrist 4.1711
rhand -30.6168 42.7844
rfingers 7.12502
rthumb -3.91306 12.8406
lclavicle 4.29375e-014 1.06549e-013
lhumerus 44.1802 2.70871 79.0017
lradius 136.302
lwrist 45.1439
lhand -1.45388 -16.5178
lfingers 7.12502
lthumb 24.1971 11.9757
rfemur -82.5126 -17.3921 24.1772
rtibia 124.664
rfoot 0.293011 13.2909
rtoes -15.3828
lfemur 15.317 -12.0839 -21.3659
ltibia 27.6382
lfoot -15.2637 -0.159651
ltoes 5.90526
54
root -3.56732 17.3542 -1.02113 357.622 -72.8902 -387.605
lowerback 52.4428 -16.8796 -11.0035
upperback 14.2178 -28.9833 -1.98189
thorax -0.406126 -16.1571 12.2346
lowerneck 5.9681 14.0824 -1.67212
upperneck 11.1164 18.1929 -2.49967
head 2.69119 8.63187 -0.428768
rclavicle -1.43125e-014 -1.1291e-013
rhumerus -61.1094 5.95835 -72.9749
rradius 57.9902
rwrist 4.02114
rhand -30.7584 42.7653
rfingers 7.12502
rthumb -4.04985 12.8241
lclavicle -1.43125e-014 -1.1291e-013
lhumerus 43.6118 2.71944 79.3664
lradius 136.111
lwrist 45.1669
lhand -0.959059 -16.776
lfingers 7.12502
lthumb 24.6714 11.6536
rfemur -84.7314 -17.8093 25.0087
rtibia 125.666
rfoot 0.418525 13.6107
rtoes -15.1555
lfemur 16.0999 -11.8223 -21.2815
ltibia 27.2045
lfoot -15.0417 -0.346867
ltoes 6.05094
55
root -3.56962 17.3526 -1.00288 357.574 -72.9924 -388.029
lowerback 53.2478 -16.7481 -11.1642
upperback 14.2437 -29.0297 -1.98884
thorax -0.42509 -16.2125 12.3467
lowerneck 5.98768 14.0409 -1.42478
upperneck 11.078 18.1493 -2.53018
head 2.70137 8.62099 -0.473671
rclavicle -6.44062e-014 3.97569e-014
rhumerus -61.3826 5.95179 -72.8313
rradius 56.8219
rwrist 3.81625
rhand -30.8348 42.5953
rfingers 7.12502
rthumb -4.1236 12.6554
lclavicle -6.44062e-014 3.97569e-014
lhumerus 42.9756 2.76036 79.824
lradius 135.889
lwrist 45.1285
lhand -0.359329 -17.0905
lfingers 7.12502
lthumb 25.2462 11.2592
rfemur -86.7033 -18.2107 25.832
rtibia 126.504
rfoot 0.525489 13.8534
rtoes -15.3953
lfemur 16.7794 -11.5811 -21.2116
ltibia 26.9266
lfoot -14.8827 -0.499669
ltoes 6.14493
56
root -3.57454 17.34 -0.98392 357.543 -73.1208 -388.42
lowerback 53.9358 -16.6093 -11.3029
upperback 14.288 -29.0478 -2.0035
thorax -0.419676 -16.2548 12.42
lowerneck 6.00857 13.9884 -1.19995
upperneck 11.0359 18.0902 -2.56059
head 2.70757 8.60175 -0.516132
rclavicle 1.24042e-013 2.06736e-014
rhumerus -61.4525 5.93362 -72.6616
rradius 55.6446
rwrist 3.57314
rhand -30.7767 42.4218
rfingers 7.12502
rthumb -4.06748 12.4809
lclavicle 1.24042e-013 2.06736e-014
lhumerus 42.3401 2.80653 80.4062
lradius 135.734
lwrist 45.0306
lhand 0.368651 -17.2661
lfingers 7.12502
lthumb 25.9434 10.9834
rfemur -88.3941 -18.5781 26.6283
rtibia 127.186
rfoot 0.574788 14.0998
rtoes -15.9955
lfemur 17.3508 -11.3336 -21.1425
ltibia 26.742
lfoot -14.7388 -0.683868
ltoes 6.32955
57
root -3.57816 17.3302 -0.964101 357.493 -73.264 -388.73
lowerback 54.5118 -16.4915 -11.4106
upperback 14.3087 -29.0588 -2.03292
thorax -0.443315 -16.28 12.4653
lowerneck 6.11343 13.9472 -1.04713
upperneck 10.9803 18.0345 -2.57126
head 2.68598 8.58152 -0.550249
rclavicle -7.63333e-014 1.1291e-013
rhumerus -61.4149 5.85005 -72.4588
rradius 54.4923
rwrist 3.43773
rhand -30.7545 42.1899
rfingers 7.12502
rthumb -4.04605 12.2486
lclavicle -7.63333e-014 1.1291e-013
lhumerus 41.7199 2.86411 81.0686
lradius 135.66
lwrist 44.8693
lhand 1.05539 -17.3424
lfingers 7.12502
lthumb 26.6009 10.8092
rfemur -89.9574 -18.9183 27.3934
rtibia 127.784
rfoot 0.678846 14.22
rtoes -16.0694
lfemur 17.8512 -11.0252 -21.0487
ltibia 26.568
lfoot -14.5588 -0.926939
ltoes 6.57337
58
root -3.57854 17.3296 -0.943177 357.516 -73.4081 -389.074
lowerback 54.9875 -16.3853 -11.4692
upperback 14.3454 -29.0472 -2.06514
thorax -0.45641 -16.2925 12.4755
lowerneck 6.19905 13.899 -0.948842
upperneck 10.912 17.9675 -2.54543
head 2.65367 8.5553 -0.565588
rclavicle 6.44062e-014 -1.27222e-013
rhumerus -61.318 5.75325 -72.3298
rradius 53.4825
rwrist 3.25458
rhand -30.7314 41.9104
rfingers 7.12502
rthumb -4.02381 11.9687
lclavicle 6.44062e-014 -1.27222e-013
lhumerus 41.276 2.97242 81.6546
lradius 135.678
lwrist 44.7172
lhand 1.51752 -17.2164
lfingers 7.12502
lthumb 27.0431 10.8673
rfemur -91.1882 -19.1549 28.0699
rtibia 128.209
rfoot 0.611608 14.2782
rtoes -14.8709
lfemur 18.3428 -10.7459 -20.9489
ltibia 26.3161
lfoot -14.3462 -1.15918
ltoes 6.9262
59
root -3.57648 17.341 -0.921574 357.622 -73.5981 -389.422
lowerback 55.3263 -16.2762 -11.5083
upperback 14.3748 -29.0043 -2.08485
thorax -0.467319 -16.2865 12.4753
lowerneck 6.31032 13.8598 -0.966795
upperneck 10.8222 17.9032 -2.48493
head 2.59492 8.52742 -0.557993
rclavicle 6.83819e-014 6.83819e-014
rhumerus -61.2035 5.6227 -72.2366
rradius 52.6693
rwrist 3.08775
rhand -30.8108 41.6878
rfingers 7.12502
rthumb -4.10045 11.7475
lclavicle 6.83819e-014 6.83819e-014
lhumerus 41.0072 3.12057 82.1951
lradius 135.711
lwrist 44.5914
lhand 1.72238 -16.938
lfingers 7.12502
lthumb 27.2391 11.1152
rfemur -92.0819 -19.2586 28.6569
rtibia 128.436
rfoot 0.268826 14.3425
rtoes -14.479
lfemur 18.8022 -10.3941 -20.8096
ltibia 25.958
lfoot -14.1099 -1.39695
ltoes 7.09215
